<?xml version="1.0" encoding="UTF-8"?>
<svg xmlns="http://www.w3.org/2000/svg" xmlns:xlink="http://www.w3.org/1999/xlink" viewBox="0 0 48 48" width="48px" height="48px">
<g id="surface20294360">
<path style=" stroke:none;fill-rule:nonzero;fill:rgb(100%,100%,100%);fill-opacity:1;" d="M 24 4 C 20.6875 4 18 6.6875 18 10 C 18 13.3125 20.6875 16 24 16 C 27.3125 16 30 13.3125 30 10 C 30 6.6875 27.3125 4 24 4 Z M 18 20 C 17.277344 19.988281 16.609375 20.367188 16.246094 20.992188 C 15.878906 21.613281 15.878906 22.386719 16.246094 23.007812 C 16.609375 23.632812 17.277344 24.011719 18 24 L 20 24 L 20 40 L 18 40 C 17.277344 39.988281 16.609375 40.367188 16.246094 40.992188 C 15.878906 41.613281 15.878906 42.386719 16.246094 43.007812 C 16.609375 43.632812 17.277344 44.011719 18 44 L 30 44 C 30.722656 44.011719 31.390625 43.632812 31.753906 43.007812 C 32.121094 42.386719 32.121094 41.613281 31.753906 40.992188 C 31.390625 40.367188 30.722656 39.988281 30 40 L 28 40 L 28 22 C 28 20.894531 27.105469 20 26 20 Z M 18 20 "/>
</g>
</svg>
