<?xml version="1.0" encoding="UTF-8"?>
<svg xmlns="http://www.w3.org/2000/svg" xmlns:xlink="http://www.w3.org/1999/xlink" viewBox="0 0 480 480" width="480px" height="480px">
<g id="surface8214481">
<path style=" stroke:none;fill-rule:nonzero;fill:rgb(0%,0%,0%);fill-opacity:1;" d="M 224.628906 270.621094 L 222.839844 267.101562 C 221.53125 267.101562 220.851562 267.070312 220.25 267.101562 C 219.539062 267.128906 218.71875 266.011719 218.71875 266.011719 C 218.71875 266.011719 217.570312 267.039062 215.417969 266.871094 L 214.808594 277.78125 C 214.808594 277.78125 217.339844 278.191406 217.417969 278.769531 C 217.488281 279.238281 216.910156 279.980469 216.269531 279.980469 C 215.628906 279.980469 215.199219 279.230469 215.199219 279.230469 L 214.648438 279.148438 L 211.628906 323.058594 L 211.289062 277.960938 L 209.011719 277.121094 L 208.058594 281.621094 L 207.96875 321.820312 L 204.941406 331.71875 L 204.871094 344.648438 L 205.949219 349.03125 L 205.988281 356.371094 L 204.589844 361.550781 L 204.449219 380.738281 L 202.058594 410 L 200.621094 390.28125 L 199.140625 386.210938 L 199.210938 352.890625 L 198.5 346.601562 C 198.5 346.601562 197.609375 367.140625 197.308594 374.808594 L 195.039062 341.449219 L 195.300781 319.570312 L 193.359375 311.628906 L 193.328125 294.058594 L 190.308594 285.167969 L 190.308594 269.101562 C 190.308594 269.101562 187.070312 268.230469 185.828125 267.179688 C 184.667969 266.210938 183.160156 264.769531 183.160156 264.769531 L 179.121094 264.871094 L 166.148438 257.878906 L 164.378906 257.667969 L 162.179688 254.339844 L 164.640625 256.859375 C 164.640625 256.859375 173.648438 258.808594 176.929688 259.328125 C 178.230469 259.539062 180.078125 259.761719 179.238281 257.199219 C 179.179688 257.011719 179.339844 256.699219 179.460938 256.480469 C 180.359375 254.808594 180.628906 253.441406 178.101562 253.308594 C 177.878906 253.300781 177.179688 252.871094 177.128906 252.699219 C 176.917969 251.898438 176.75 250.570312 175.878906 250.640625 C 174.21875 250.769531 172.359375 249.839844 171.300781 249.519531 C 170.339844 249.238281 169.417969 249.53125 169.417969 249.53125 C 169.417969 249.53125 168.359375 248.378906 167.851562 248.238281 C 167 248.019531 166.550781 248.191406 165.898438 248.128906 C 163.238281 247.890625 162.851562 249.289062 162.058594 251.371094 C 159.429688 247.800781 158.28125 249.078125 156.390625 248.128906 C 155.398438 247.640625 153.558594 246.988281 153.558594 246.988281 C 153.558594 246.988281 152.148438 247.621094 151.441406 248.210938 C 151.101562 248.488281 150.078125 248.519531 149.890625 248.269531 C 148.917969 246.960938 147.519531 246.21875 145.648438 246.449219 C 144.121094 246.640625 142.628906 245.789062 142.628906 245.789062 L 142.511719 249.78125 L 140.390625 256.21875 L 139.820312 270.128906 L 138.660156 275.828125 L 138.320312 245.910156 L 137.511719 245.871094 L 137.578125 286.238281 L 137.929688 286.898438 L 138 291.769531 L 136.179688 296.058594 L 135.980469 300.550781 L 136.699219 302 L 133.941406 357.289062 L 133.460938 319.570312 L 132.730469 318.011719 L 131.917969 341.519531 L 129.609375 348.851562 L 129.820312 367.441406 L 127.550781 372.210938 L 127.550781 379.199219 L 127.859375 380.351562 L 125.898438 403.910156 L 124.398438 378.128906 L 122.75 369.71875 L 122.601562 353.390625 L 121.441406 349.429688 L 121.460938 331.398438 L 119.691406 319.058594 L 119.679688 292 L 118.550781 287.808594 L 118.648438 271.550781 L 117.710938 267.609375 L 114.679688 321.378906 L 114.140625 254.511719 L 112.941406 253.351562 C 112.941406 253.351562 112.921875 245.378906 112.921875 241.769531 C 108.5 242.539062 104.78125 240.917969 100.988281 239.289062 C 99.238281 238.53125 94.78125 238.960938 93.46875 238.289062 C 92.128906 237.601562 90.640625 236.46875 90.640625 236.46875 C 90.640625 236.46875 87.839844 236.761719 86.230469 236.238281 C 83.050781 235.808594 82.390625 234.660156 80.988281 233.28125 C 76.449219 228.808594 71.351562 225.78125 64.96875 225.308594 C 62.898438 225.160156 61.320312 224.121094 59.820312 222.628906 C 57.269531 220.109375 54.121094 219.070312 50.519531 219.53125 C 49.671875 219.640625 48.710938 219.550781 47.910156 219.25 C 45.039062 218.179688 42.210938 216.980469 39.371094 215.808594 C 38.320312 215.371094 36.269531 214.269531 36.269531 214.269531 C 36.269531 214.269531 35.371094 214.761719 34.921875 215.050781 C 34.699219 215.191406 34.109375 215.011719 33.871094 214.78125 C 31.898438 212.890625 30.050781 210.960938 29.859375 207.890625 C 29.789062 206.789062 30.050781 206.179688 29.601562 205.730469 C 28.121094 204.230469 26.269531 202.449219 26.289062 200.351562 C 26.308594 197.988281 26.160156 194.75 26.238281 192.390625 C 26.359375 188.441406 28.171875 185.679688 31.441406 183.378906 C 33.101562 182.210938 34.738281 181.488281 36.609375 181.320312 C 38.839844 181.121094 41.308594 181.601562 43.390625 181.710938 C 48.988281 182 47.628906 182.558594 49.089844 182.761719 C 50.148438 182.910156 51.730469 182.910156 52.800781 182.828125 C 60.53125 182.519531 61.210938 183.269531 65.359375 186.199219 C 69.128906 188.871094 73.519531 187.191406 75.671875 188.71875 C 76.371094 189.21875 78.191406 191.449219 80.410156 192.21875 C 83.769531 193.378906 84.761719 193.121094 86.820312 193.667969 C 92.988281 195.320312 94.441406 195.359375 97.890625 195.179688 L 98.21875 195.71875 L 99.628906 195.917969 L 100.710938 195.039062 L 111.339844 195.25 L 110.699219 185.480469 L 108.558594 178.710938 L 111.488281 166.71875 L 111.488281 152.621094 L 111.898438 152.28125 L 111.921875 150.710938 L 111.488281 150.179688 C 111.488281 149.320312 111.5 148.769531 111.5 148.769531 L 111.941406 148.691406 L 111.960938 146.320312 L 111.390625 145.761719 L 111.460938 140.691406 L 114.28125 134.480469 L 114.589844 128.699219 L 118.339844 125.691406 C 118.339844 125.691406 120.308594 125.308594 121.019531 125.039062 C 123.859375 123.949219 125.378906 123.070312 125.378906 123.070312 C 130.988281 122.589844 133.878906 121.21875 133.878906 121.21875 L 134.960938 117.550781 C 135.398438 119.011719 136.46875 123.050781 136.46875 123.050781 L 138.539062 122.261719 C 138.539062 122.261719 139.75 124.519531 141 124.679688 L 141.890625 120.910156 L 143.238281 121.351562 L 144.359375 109.191406 L 146.109375 130.949219 L 146.851562 132.648438 C 146.851562 132.648438 147.359375 128.96875 147.511719 128.238281 C 147.640625 130.269531 148.558594 136.417969 148.558594 136.417969 C 148.558594 136.417969 151.25 141.5 152.039062 144.058594 C 152.039062 144.058594 151.167969 146.871094 150.460938 151.128906 C 149.511719 152.339844 147.871094 153.5 148.019531 157 C 148.160156 160.230469 148.628906 162.910156 148.628906 162.910156 L 147.28125 164.519531 L 147.441406 188.789062 L 143.601562 203.398438 L 153.53125 204.25 L 157.089844 205.917969 L 161.71875 205.789062 L 170.648438 208.011719 L 172.289062 207.640625 L 175.839844 209.761719 L 178.039062 209.558594 C 178.039062 209.558594 178.351562 209.980469 178.699219 210.101562 L 178.238281 212.089844 L 178.859375 212.929688 L 180.601562 213.128906 L 184.039062 216.03125 L 186.148438 214.929688 L 184.808594 186.460938 L 186.019531 184.179688 L 186 175.769531 L 182.210938 164.761719 L 182.109375 144.628906 L 181.078125 143.429688 L 180.78125 153.578125 L 179.320312 136.429688 L 177.601562 133.667969 L 177.589844 129.820312 L 177.140625 129.578125 C 177.148438 128.808594 177.570312 126.558594 177.570312 126.558594 L 176.878906 125.671875 L 178.019531 114.320312 C 178.019531 114.320312 179.929688 113.601562 181.601562 109.421875 C 183.019531 105.851562 184.417969 104.628906 186.570312 102.789062 C 187.941406 101.609375 189.121094 100.179688 190.539062 99.070312 C 192.140625 97.820312 192.539062 96.410156 195.609375 95.691406 C 198.160156 95.101562 200.039062 92.320312 200.039062 92.320312 L 200.949219 93.378906 L 203.070312 87.058594 L 204.550781 86.550781 L 206.679688 70 L 207.851562 90.601562 L 208.839844 90.761719 L 209.800781 83.570312 L 211.101562 96.660156 L 211.898438 96.949219 L 212.167969 92.980469 L 213.21875 91.609375 L 213.980469 83.261719 L 214.871094 94.769531 L 215.371094 96.378906 L 215.878906 94.558594 L 216.46875 100.519531 L 218.460938 101.730469 L 218.480469 104.101562 L 220.46875 107.210938 C 220.46875 107.210938 220.761719 110.941406 220.71875 111.921875 C 220.679688 112.890625 220.621094 114.828125 220.621094 114.828125 L 221.320312 117.988281 L 220.167969 120 L 220.121094 121.230469 L 220.578125 121.621094 L 220.667969 132.929688 L 219.480469 138.691406 L 219.960938 141.820312 L 217.898438 179.550781 L 217.511719 151.710938 L 216.101562 158.109375 L 216 185.710938 L 217.839844 191.871094 L 217.96875 222.640625 C 217.96875 222.640625 219.160156 222.039062 220.730469 222.101562 C 222.988281 222.179688 224.898438 224.019531 228.210938 224.589844 C 229.289062 225.359375 230.851562 227.179688 232.050781 227.75 C 232.390625 227.910156 234.648438 228.371094 234.648438 228.371094 L 236.96875 230.539062 C 239.179688 230.339844 240.691406 230.78125 242.238281 231.550781 C 245.167969 232.320312 247.660156 233.640625 249.300781 236.238281 C 250.410156 238.011719 251.929688 239.050781 253 239.667969 C 254.070312 240.300781 258.890625 240.191406 258.890625 240.191406 L 258.828125 210.941406 L 256.328125 201.371094 L 256.109375 179.890625 L 258.828125 174.441406 L 258.589844 156.289062 L 257.800781 153.609375 L 257.851562 147.148438 L 257.167969 148.011719 C 257.167969 148.011719 256.679688 168.191406 256.449219 175.238281 C 256.351562 175.238281 254.5 138.261719 254.5 138.261719 L 252.828125 134.828125 C 252.828125 134.828125 254.378906 130.550781 254.378906 129.828125 C 254.378906 128.089844 253.71875 127.28125 253.71875 127.28125 L 253.5 120.871094 C 253.5 120.871094 254.78125 118.121094 255.328125 114.648438 C 255.710938 112.261719 255.730469 109.410156 255.730469 109.410156 L 260.441406 103.660156 L 260.558594 99.371094 L 262.511719 97.089844 L 263.488281 78.378906 L 264.5 92.46875 L 266.539062 100.019531 L 267.519531 98.960938 L 267.519531 94.058594 L 268.609375 96 L 269 87.871094 L 269.46875 95.039062 L 271.101562 98.070312 L 273.308594 97.488281 L 278.089844 100.320312 L 279.859375 100.261719 L 280.820312 96.808594 L 281.851562 102.160156 L 283.429688 103.25 L 283.96875 105.039062 C 283.96875 105.039062 286.179688 106.378906 286.601562 106.828125 C 287.691406 108.460938 289.75 114.210938 289.75 114.210938 L 290.28125 120.871094 C 286.871094 128.210938 286.488281 131.800781 286.511719 136.25 C 286.53125 141.488281 285.589844 153.019531 285.589844 153.019531 L 287.660156 162.578125 L 286.179688 222.789062 L 284.96875 228.417969 C 284.96875 228.417969 284.941406 199.679688 284.941406 186.761719 L 284.511719 185.96875 L 282.871094 193.621094 L 282.828125 233.300781 L 281.980469 240.601562 L 281.871094 248 C 281.871094 248 282.910156 248.820312 284.410156 249.140625 C 287.820312 251.828125 291.929688 252.429688 296.511719 251.691406 C 296.820312 251.640625 297.148438 251.667969 297.46875 251.648438 C 299.199219 251.539062 300.449219 252.21875 301.070312 253.941406 C 301.628906 255.519531 302.71875 255.960938 304.339844 256.039062 C 306.199219 256.140625 307.011719 255.941406 308.851562 256.351562 C 310.089844 256.628906 310.28125 258.019531 313.578125 258.019531 C 315.71875 258.121094 317.460938 259.011719 319.199219 260.148438 C 320.519531 261.019531 323.71875 262.53125 323.71875 262.53125 L 323.148438 241.148438 L 323.539062 221.429688 L 322.5 216.808594 L 321.910156 216.109375 L 320.710938 230.011719 L 317.941406 211.210938 L 317.800781 188.941406 L 319.441406 183.128906 L 319.441406 174.269531 L 318.109375 167.621094 L 318.300781 165 L 317.488281 164.53125 L 317.441406 162.828125 L 317.058594 162.199219 L 319.429688 149.859375 L 322.699219 146.949219 L 325.371094 140.089844 L 326.019531 142.679688 L 326.679688 143.109375 L 327.679688 126.421875 L 329.730469 139.167969 L 331.230469 140.480469 L 332.410156 139.917969 L 334.019531 117.558594 L 335.308594 138.308594 L 336.199219 129.898438 L 336.890625 139.96875 L 337.679688 138.929688 L 338.339844 140.191406 L 339.199219 140.238281 L 339.800781 141.300781 L 341.238281 141.230469 C 342.46875 142.488281 344.261719 142.898438 345.03125 143.441406 C 346.261719 144.308594 347.929688 144.558594 347.929688 144.558594 C 347.929688 144.558594 350.359375 148.320312 351.460938 150.910156 C 352.328125 152.960938 353.601562 157.28125 353.601562 157.28125 L 353.28125 164.46875 L 354.089844 167.070312 L 352.019531 172.71875 L 354.429688 176.28125 L 351.480469 243.210938 L 350.320312 199.308594 L 349.660156 201.910156 L 349.738281 213.988281 L 347.101562 220.121094 C 347.101562 220.121094 346.96875 240.648438 347.078125 249.980469 C 347.121094 253.199219 346.960938 255.03125 346.960938 255.03125 L 344.011719 262.398438 L 343.960938 267.351562 L 346.238281 268.609375 C 349.898438 267.980469 353.851562 268.160156 357.058594 270.289062 C 358.25 271.078125 359.761719 271.398438 361.167969 271.769531 C 363.128906 272.289062 362.679688 271.800781 364.691406 272.070312 C 365.378906 272.160156 367.820312 273.660156 368.511719 273.28125 C 369.230469 272.890625 369.890625 270.929688 370.941406 270.738281 C 371.988281 270.550781 373.101562 272.351562 373.109375 273.128906 C 373.121094 273.859375 373.179688 275.191406 373.179688 275.191406 C 373.179688 275.191406 375.769531 276.660156 376.988281 276.628906 C 382.308594 276.628906 385.109375 278.621094 389.609375 279.480469 C 392.871094 280.101562 394.320312 280.289062 397.519531 281.179688 C 398.648438 281.488281 400.710938 281.699219 401.800781 282.667969 C 402.25 283.070312 402.089844 284.109375 404.417969 284.78125 C 405.691406 285.148438 409.417969 285.109375 411.808594 286.539062 C 416.371094 289.269531 419.46875 290.101562 422.710938 289.859375 C 423.859375 289.78125 425.269531 289.941406 426.199219 290.570312 C 429.191406 292.578125 432.460938 293.449219 435.929688 293.828125 C 436.710938 293.917969 437.828125 294.519531 438.589844 294.738281 C 438.589844 294.859375 437.25 295.53125 435.78125 295.511719 C 434.710938 295.5 433.539062 294.820312 432.871094 294.839844 C 429.191406 294.941406 429.738281 294.601562 427.320312 294.078125 C 426.019531 293.800781 425.859375 294.230469 425.03125 295.261719 C 424.210938 296.28125 422.890625 297.078125 421.808594 296.878906 C 420.589844 296.648438 419.558594 295.308594 417.449219 295.011719 C 412.519531 294.289062 413.570312 293.078125 409.539062 291.53125 C 408.480469 291.128906 405.449219 290.828125 404.300781 290.761719 C 399.75 290.761719 401.589844 288.769531 398.96875 288.570312 C 396.351562 288.371094 396.28125 286.667969 395.191406 286.308594 C 394.289062 286.011719 394.070312 286.578125 391.429688 286.460938 C 390.859375 286.429688 390 286.550781 389.578125 286.199219 C 385.71875 283.03125 380.941406 283.78125 376.558594 282.871094 C 372.148438 282.640625 371.128906 281.417969 368.800781 281.320312 C 367.167969 281.25 364.167969 282.738281 364.167969 282.738281 C 364.167969 282.738281 364.03125 284.128906 364.21875 284.691406 C 364.929688 286.917969 366.917969 287.898438 369.898438 287.449219 C 371.738281 287.167969 373.480469 286.769531 374.550781 288.917969 C 374.640625 289.101562 374.980469 289.210938 375.21875 289.238281 C 376.089844 289.398438 377.121094 289.21875 377.929688 289.371094 C 378.917969 289.558594 379.667969 290.089844 380.570312 290.269531 C 399.5 294.109375 399.488281 296.148438 403.628906 296.148438 C 406.019531 296.148438 406.820312 296.398438 410.429688 296.398438 C 410.949219 296.398438 411.871094 298.621094 418.339844 300.140625 C 419.890625 300.648438 420.480469 301.039062 426.089844 301.039062 C 427.320312 301.039062 431.757812 303.890625 433.980469 303.988281 C 434.5 304.011719 435.71875 303.917969 435.738281 303.121094 C 435.757812 302.460938 435.089844 301.820312 434.578125 301.578125 C 433.371094 301 432.039062 300.71875 430.789062 300.230469 C 430.148438 299.980469 429.519531 299.628906 428.96875 299.199219 C 428.738281 299.019531 428.550781 298.738281 428.660156 298.167969 C 428.78125 297.601562 429.828125 297.988281 429.828125 297.988281 C 429.828125 297.988281 431.960938 299.859375 437.480469 300.699219 C 438.988281 301.351562 442.738281 304.058594 444.308594 304.558594 C 448.480469 304.53125 449.800781 305.167969 450.808594 306.039062 C 451.339844 306.488281 451.859375 306.648438 452.941406 306.851562 C 454.320312 307.109375 457.238281 306.480469 457.070312 307.167969 C 456.929688 308.371094 456.238281 309.058594 454.820312 308.71875 C 453.828125 308.488281 452.800781 308.261719 451.890625 307.820312 C 449.691406 306.738281 447.550781 305.679688 444.949219 306.011719 C 444.101562 306.121094 443.109375 305.539062 442.257812 305.140625 C 440.339844 304.230469 438.5 304.058594 436.589844 305.21875 C 434.539062 306.46875 432.398438 306.089844 430.300781 305.289062 C 428.75 304.699219 425.699219 303.230469 425.699219 303.230469 C 425.699219 303.230469 422.328125 303.089844 421.03125 303.53125 C 421.058594 302.550781 420.929688 301.199219 419.449219 301.558594 C 417.96875 301.917969 418.667969 302.761719 419.257812 303.261719 C 418.140625 303.359375 416.839844 304.039062 415.710938 303.929688 C 414.578125 303.828125 413.621094 302.949219 412.5 301.519531 C 412.039062 300.929688 411.320312 300.160156 410.648438 300.058594 C 410.238281 300 409.988281 300.511719 409.441406 300.53125 C 408.949219 300.550781 407.78125 299.140625 406.878906 299.019531 C 405.121094 298.78125 403.789062 297.929688 402.808594 297.570312 C 400.960938 296.910156 399.660156 297.070312 399.660156 297.070312 C 399.660156 297.070312 398.101562 296.078125 397.320312 295.800781 C 395.078125 294.988281 394.75 295.351562 394.628906 297.679688 C 394.808594 299.769531 393.839844 300.5 393.28125 301.679688 C 393.191406 301.859375 392.351562 302.019531 391.539062 301.179688 C 391.558594 300.980469 391.589844 300.78125 391.609375 300.578125 C 392.21875 300.160156 393.070312 299.878906 393.378906 299.289062 C 393.710938 298.667969 393.800781 298.128906 393.601562 297.417969 C 393.5 297.050781 393.300781 296.167969 392.769531 295.988281 C 392.460938 295.878906 391.417969 296.621094 391.101562 296.53125 C 390.640625 296.410156 390.398438 295.070312 389.679688 295.660156 C 388.960938 296.261719 389.441406 296.898438 389.550781 297.46875 C 389.917969 299.289062 389.039062 300.699219 387.339844 300.78125 C 386.328125 300.820312 385.710938 300.441406 385.980469 299.261719 C 386.089844 298.75 386.199219 298.238281 386.300781 297.71875 C 386.621094 296.03125 385.960938 295.121094 385.960938 295.121094 C 385.960938 295.121094 380.417969 293.191406 378.871094 292.910156 C 377.960938 292.75 376.859375 293.199219 376.679688 293.738281 C 376.089844 295.558594 376.449219 295.960938 377.359375 297.167969 C 377.558594 297.429688 377.820312 297.808594 378.140625 298.011719 C 378.988281 298.550781 379.800781 299 379.039062 300.269531 C 378.320312 301.46875 377.511719 302.128906 376.050781 301.71875 C 374.5 301.148438 373.949219 300.640625 371.46875 300.601562 C 370.691406 300.371094 369.851562 300.070312 369.269531 299.539062 C 367.230469 297.667969 364.660156 297.140625 361.980469 297.140625 C 361.320312 297.140625 360.648438 296.621094 360.261719 296.101562 C 359 294.378906 358.019531 293.96875 356.109375 293.917969 C 354.640625 293.871094 352.417969 293.960938 350.960938 293.800781 C 349.71875 293.878906 347.980469 293.53125 347.980469 293.53125 L 347.761719 292.070312 L 344.808594 291.917969 L 345.910156 301.808594 L 342.25 360.960938 L 341.230469 318.121094 L 340.660156 318.019531 L 339.71875 321.78125 L 339.71875 347.578125 L 337.128906 355.328125 L 334.128906 393.25 L 331.71875 355.460938 L 331.519531 334.941406 L 329.667969 327.667969 L 329.738281 316.589844 L 330.851562 312.199219 L 330.851562 292.710938 L 329.03125 287.480469 C 329.03125 287.480469 328.679688 287.460938 327.28125 287.828125 C 326.699219 287.980469 325.359375 287.570312 325.359375 287.570312 L 324.769531 308.78125 L 324.179688 287.71875 C 322.710938 288.550781 322.03125 289.011719 321.121094 289.71875 C 318.078125 292.121094 315.011719 293.289062 312.761719 292.980469 C 311.371094 292.789062 310.53125 293.578125 309.730469 293.660156 C 309.308594 293.699219 308.761719 293.480469 308.640625 293.191406 C 308.050781 291.71875 306.808594 291.539062 305.550781 291.238281 C 303.25 290.699219 300.96875 290.039062 298.667969 289.46875 C 295.078125 288.589844 291.488281 288.28125 287.949219 289.78125 C 287.621094 289.917969 287.148438 290.089844 286.828125 289.890625 C 285.230469 288.839844 283.691406 289.460938 282.210938 289.859375 C 279.460938 290.601562 279.289062 288.558594 279.289062 288.558594 L 278.601562 287.929688 L 276.351562 296.691406 L 276.429688 336.679688 L 273.230469 344.289062 L 273.230469 354.75 L 269.980469 381.808594 L 267.859375 345.960938 L 268.140625 325.410156 L 266.058594 319.730469 C 266.058594 319.730469 264.710938 342.058594 264.140625 351.070312 L 262.398438 320.109375 L 260.339844 312.710938 L 261.648438 306.019531 L 261.730469 284.140625 L 260.699219 283.699219 C 260.699219 283.699219 259.320312 279.820312 258.378906 279.820312 C 257.441406 279.820312 249.75 279.351562 249.75 279.351562 C 249.75 279.351562 244.148438 281.089844 241.550781 282.160156 C 239.941406 282.820312 239.109375 282.460938 237.429688 282.460938 C 237.210938 282.460938 236.640625 283.011719 235.988281 283.480469 C 234.871094 284.28125 233.871094 284.390625 232.917969 283.320312 C 231.578125 281.789062 230.351562 281.839844 230.351562 281.839844 C 230.351562 281.839844 228.109375 282.75 227.890625 282.699219 C 227.050781 282.511719 226.21875 282.289062 225.429688 281.941406 C 225.328125 281.898438 225.449219 280.738281 225.449219 280.738281 L 227.398438 279.691406 L 228.699219 280.160156 L 229.480469 280.78125 L 230.679688 280.558594 L 231.75 281.261719 C 231.75 281.261719 232.449219 281.121094 232.660156 281.160156 C 232.800781 281.191406 233.03125 278.980469 233.03125 278.980469 L 233.300781 281.371094 C 234.578125 281.660156 234.851562 279.917969 234.851562 279.140625 C 234.851562 278.121094 234.230469 276.988281 234.230469 276.988281 L 233.730469 276.820312 L 232.949219 277.679688 L 232.25 276.320312 L 230.191406 274.96875 L 226.941406 274.828125 Z M 225.800781 275.410156 C 225.800781 275.410156 228.261719 276.820312 227.730469 277.230469 C 227.519531 277.390625 226.46875 276.25 225.390625 276.269531 C 224.570312 276.28125 223.488281 277.410156 223.488281 277.410156 L 221.898438 277.378906 L 219.851562 279.320312 L 218.667969 279.28125 L 217.878906 280.070312 L 218.089844 278.929688 C 218.089844 278.929688 220.28125 276.910156 220.519531 276.539062 C 221.03125 275.75 221.359375 273.160156 221.359375 273.160156 C 221.359375 273.160156 222.148438 273.410156 223.210938 273.410156 L 224.160156 271.511719 L 225.601562 273.628906 Z M 295.167969 270.601562 L 294.910156 273.378906 C 294.910156 273.378906 296.371094 273.628906 297.519531 273.761719 C 298.089844 273.820312 298.621094 274.800781 298.558594 277.148438 C 299.679688 277.761719 300.917969 277.621094 301.691406 277.417969 C 302.679688 277.167969 303.621094 276.640625 304.609375 276.5 C 306.101562 276.289062 307.878906 275.761719 309.070312 276.339844 C 313.960938 278.738281 318.898438 277.960938 323.871094 277.390625 C 323.941406 276.648438 323.929688 275.609375 323.910156 275.167969 C 323.859375 273.871094 323.359375 274.28125 321.53125 274.679688 C 320.070312 275 319.21875 274.460938 318.441406 273.359375 C 317.691406 272.308594 316.871094 271.300781 316.058594 270.300781 C 315.980469 270.199219 315.71875 270.25 315.460938 270.21875 C 315.339844 270.789062 315.21875 271.320312 315.148438 271.679688 C 313.328125 271.949219 313.75 270.359375 312.941406 270.058594 C 311.980469 269.710938 310.789062 270.058594 309.890625 269.628906 C 307.308594 268.390625 304.800781 267.03125 301.910156 268.667969 C 301.761719 268.75 301.511719 268.738281 301.339844 268.667969 C 300.160156 268.191406 297.667969 267.679688 297.667969 267.679688 C 297.667969 267.679688 296.550781 268.621094 293.820312 268.609375 C 290.039062 268.980469 286.851562 267.980469 284.949219 264.210938 C 284.550781 263.417969 283.851562 262.75 283.179688 262.160156 C 282.789062 261.808594 282.167969 261.730469 281.660156 261.53125 C 281.558594 261.691406 281.449219 261.851562 281.351562 262.019531 C 281.648438 262.371094 281.890625 262.828125 282.261719 263.050781 C 283.980469 264.070312 284.949219 265.167969 286.121094 267.261719 C 287.148438 268.648438 288.769531 269.109375 289.71875 270.089844 C 292.769531 270.058594 293.621094 270.417969 295.167969 270.601562 Z M 344.210938 281.339844 C 344.210938 281.339844 343.761719 284.039062 344.609375 285.460938 C 344.609375 285.460938 346.480469 285.441406 348.929688 285.5 C 351.398438 285.558594 353.820312 286.289062 356.269531 286.628906 C 356.898438 286.71875 357.820312 286.808594 358.148438 286.449219 C 358.578125 285.980469 358.78125 285.039062 358.679688 284.359375 C 358.410156 282.578125 357.238281 281.808594 354.890625 282 C 351.339844 282.289062 347.800781 283.210938 344.210938 281.339844 Z M 181.039062 257.351562 C 181.019531 259.210938 182.25 260.71875 183.410156 261.050781 C 185.289062 261.589844 185.300781 259.53125 185.460938 258.109375 C 185.46875 257.988281 185.871094 256.878906 185.859375 256.78125 C 185.730469 255.878906 185.628906 255.640625 185.121094 255.148438 C 184.570312 254.621094 183.238281 254.417969 182.53125 254.730469 C 181.761719 255.070312 181.050781 255.917969 181.039062 257.351562 Z M 209.828125 267.519531 L 209.878906 276.039062 L 211.140625 276.449219 L 210.96875 268.429688 Z M 22.449219 198.480469 C 21.199219 197.148438 20.71875 195.71875 19.351562 194.660156 C 18.890625 194.308594 18.238281 194.789062 17.808594 194.308594 C 17.019531 193.410156 16.261719 192.449219 15.410156 192.417969 C 14.898438 192.398438 14.320312 193.089844 13.800781 193.238281 C 12.800781 193.519531 11.578125 193.910156 11.03125 194.738281 C 10.328125 195.800781 10.429688 197.191406 10.101562 198.417969 C 9.460938 200.800781 10.050781 202.828125 12.261719 203.808594 C 15.199219 205.109375 17.488281 207.609375 21.089844 204.949219 C 22.230469 204.109375 23.449219 205.109375 23.519531 201.917969 C 23.550781 200.011719 23.199219 199.371094 22.449219 198.480469 Z M 458.917969 306.101562 C 458.96875 306.449219 459.351562 306.78125 459.628906 306.851562 C 461.339844 307.289062 462.398438 307.550781 463.148438 309.75 C 463.308594 310.21875 464.269531 310.398438 465.300781 310.988281 C 465.910156 311.339844 466.148438 312.300781 466.757812 312.539062 C 467.070312 312.660156 467.691406 312.660156 467.960938 312.679688 C 469.871094 312.859375 472.570312 313.859375 474.210938 314.589844 C 474.359375 314.660156 475.539062 314.019531 476.507812 314 C 477.050781 313.988281 477.410156 314.570312 477.769531 314.609375 C 478.550781 314.691406 479.121094 313.480469 479.820312 312.808594 C 479.960938 312.667969 479.378906 311.179688 478.941406 311.058594 C 476.878906 310.488281 476.140625 310.128906 475.03125 309.871094 C 473.878906 309.621094 470.578125 310.148438 469.878906 309.398438 C 466.96875 306.300781 463.210938 305.46875 459.140625 305.609375 C 458.980469 305.609375 458.898438 305.917969 458.917969 306.101562 Z M 18.46875 180.609375 C 18.109375 178.917969 15.859375 177.859375 14.390625 178.679688 C 13.171875 179.371094 12.648438 179.949219 11.140625 180.738281 C 9.851562 181.410156 7.890625 182.398438 8.480469 184.570312 C 9.101562 186.851562 10.589844 188.25 12.511719 188.269531 C 16.601562 188.289062 19.359375 184.75 18.46875 180.609375 Z M 54.640625 222.761719 C 53.730469 221.160156 51.710938 220.949219 50.808594 220.949219 C 50.011719 220.949219 50.199219 221.738281 48.910156 221.710938 C 46.199219 221.640625 45.871094 222.5 45.828125 222.871094 C 45.410156 226.960938 46.21875 227.648438 48.96875 227.710938 C 51.238281 227.761719 53.691406 227.410156 55.328125 225.601562 C 56.261719 224.570312 56.648438 224.578125 57.269531 224.019531 C 56.550781 223.601562 55.210938 223.761719 54.640625 222.761719 Z M 396.789062 308.261719 C 398.339844 309.5 400.058594 310.53125 401.800781 311.480469 C 402.75 312 404 311.050781 403.96875 310.03125 C 403.960938 309.648438 403.519531 309.148438 403.5 308.851562 C 403.351562 306.78125 403.46875 306.667969 400.859375 305.699219 C 399.917969 305.328125 399.089844 304.691406 398.191406 304.199219 C 396.558594 303.320312 396.070312 304.230469 395.53125 304.71875 C 396.550781 304.929688 395.019531 307.289062 396.789062 308.261719 Z M 6.210938 184.011719 C 5.570312 181.929688 3.980469 181.320312 2.171875 181.058594 C 0.671875 180.851562 -0.28125 182.589844 0.0898438 183.570312 C 0.671875 185.160156 3.148438 187 4.339844 186.710938 C 6.5 186.738281 6.859375 186.140625 6.210938 184.011719 Z M 439.859375 295.898438 C 439.058594 295.980469 438.5 296.5 439.25 297.378906 C 440.480469 298.820312 444.828125 299.859375 447.429688 299.261719 C 448.007812 299.128906 448.191406 298.589844 448.578125 298.320312 C 445.820312 296.640625 443.019531 295.578125 439.859375 295.898438 Z M 152.410156 250.988281 C 152.128906 251.890625 153.898438 252.410156 156.191406 253.519531 C 158.371094 254.578125 161.03125 256.21875 162.378906 257.089844 C 159.730469 254.488281 153.078125 248.808594 152.410156 250.988281 Z M 480 309.449219 C 478.238281 308.730469 473.941406 306.941406 473.941406 306.941406 L 472.71875 307.917969 L 469.988281 307.339844 L 470.238281 308.078125 C 470.25 308.078125 476.640625 309.640625 480 309.449219 Z M 393.101562 308.261719 C 390.960938 306.761719 388.820312 306.011719 385.988281 306.148438 C 387.667969 308.03125 392.710938 309.828125 393.101562 308.261719 Z M 67.261719 184.339844 C 67.21875 183.011719 67.21875 182.230469 66.300781 182.128906 C 65.398438 182.128906 64.871094 183.019531 64.671875 183.621094 C 64.179688 185.109375 65.679688 186.179688 67.699219 185.828125 C 67.480469 185.417969 67.28125 185.019531 67.261719 184.339844 Z M 451.257812 300.160156 C 453.839844 302.03125 455.25 302.898438 457.710938 301.390625 C 455.710938 300.898438 453.898438 299.929688 451.03125 299.808594 C 451.03125 299.820312 451.121094 300.058594 451.257812 300.160156 Z M 384.039062 305.449219 C 384.191406 304.589844 381.738281 304.570312 381.738281 304.570312 C 383.140625 306.667969 383.890625 306.308594 384.039062 305.449219 Z M 113.839844 195.691406 L 113.839844 181.148438 L 112.660156 195.148438 Z M 113.839844 195.691406 "/>
</g>
</svg>
